<svg width="64" height="64" viewBox="0 0 64 64" fill="none" xmlns="http://www.w3.org/2000/svg">
    <g clip-path="url(#clip0_3242_495)">
        <path
            d="M32 64C49.6731 64 64 49.6731 64 32C64 14.3269 49.6731 0 32 0C14.3269 0 0 14.3269 0 32C0 49.6731 14.3269 64 32 64Z"
            fill="url(#paint0_linear_3242_495)" />
        <path
            d="M52.2062 30.0437L43.1677 21.0052L43.1513 20.9888L43.1155 20.9575C43.057 20.9046 42.9958 20.8549 42.9321 20.8084C42.8874 20.7726 42.8427 20.7383 42.7949 20.707C42.7741 20.6921 42.7532 20.6802 42.7308 20.6668C42.2155 20.3293 41.5922 20.1979 40.9845 20.2987C40.3768 20.3995 39.8293 20.7252 39.4506 21.211L25.3934 35.2697V22.7452C25.3934 22.0868 25.1318 21.4554 24.6663 20.9898C24.2007 20.5242 23.5693 20.2627 22.9109 20.2627C22.2525 20.2627 21.621 20.5242 21.1555 20.9898C20.6899 21.4554 20.4283 22.0868 20.4283 22.7452V35.2697L15.2963 30.1376C14.8272 29.6903 14.2017 29.4442 13.5536 29.4519C12.9055 29.4596 12.286 29.7205 11.8277 30.1789C11.3694 30.6372 11.1085 31.2566 11.1008 31.9048C11.0931 32.5529 11.3392 33.1784 11.7865 33.6475L21.156 43.017C21.2148 43.0766 21.2771 43.1329 21.3423 43.1854C21.405 43.2361 21.4706 43.2853 21.5362 43.3345C21.8747 43.5539 22.2616 43.6875 22.6634 43.7237H22.6738C22.7543 43.7312 22.8348 43.7356 22.9153 43.7356H22.9526C23.0202 43.7356 23.0873 43.7326 23.1539 43.7267H23.2031C23.2672 43.7192 23.3313 43.7118 23.394 43.6983H23.4223C23.4924 43.6834 23.5624 43.667 23.631 43.6462H23.643C23.7178 43.6236 23.7915 43.5972 23.8636 43.5671C23.9665 43.5246 24.0661 43.4748 24.1618 43.418L24.2185 43.3852C24.3123 43.3279 24.4019 43.2641 24.4869 43.1944L24.5122 43.172C24.5644 43.1273 24.6166 43.0826 24.6613 43.0319L38.9153 28.7689V41.2546C38.9153 41.913 39.1769 42.5444 39.6425 43.01C40.108 43.4756 40.7395 43.7371 41.3979 43.7371C42.0563 43.7371 42.6877 43.4756 43.1533 43.01C43.6188 42.5444 43.8804 41.913 43.8804 41.2546V28.7301L48.6963 33.555C49.1638 34.0114 49.7924 34.265 50.4457 34.261C51.099 34.257 51.7244 33.9957 52.1862 33.5336C52.6481 33.0715 52.9092 32.446 52.9129 31.7927C52.9167 31.1395 52.6627 30.511 52.2062 30.0437Z"
            fill="white" />
    </g>
    <defs>
        <linearGradient id="paint0_linear_3242_495" x1="4.28217" y1="15.997" x2="59.7178"
            y2="48.0015" gradientUnits="userSpaceOnUse">
            <stop offset="0.13" stop-color="#348BED" />
            <stop offset="0.31" stop-color="#2B80E8" />
            <stop offset="0.64" stop-color="#1461DB" />
            <stop offset="0.72" stop-color="#0E57D7" />
        </linearGradient>
        <clipPath id="clip0_3242_495">
            <rect width="200.839" height="64" fill="white" />
        </clipPath>
    </defs>
</svg>
