<svg width="246" height="63" viewBox="0 0 246 63" fill="none" xmlns="http://www.w3.org/2000/svg">
<path d="M0 4.1001H22.4C33.7 4.1001 40.2 10.6 40.2 19.3C40.2 24.5 37.7 28.5001 33.7 30.9001V31.4001C37.5 33.1001 42 37.2001 42 44.6001C42 55.2001 33.5 61.4001 24.1 61.4001H0V4.1001ZM20.7 27.1001C25 27.1001 27.5 24.4001 27.5 20.6001C27.5 17.1001 24.8 14.6001 20.8 14.6001H12.4V27.0001H20.7V27.1001ZM20.7 50.5001C25.2 50.5001 28.3 48.2 28.3 43.3C28.3 38.6 24.7 36.4001 20.5 36.4001H12.3V50.5001H20.7Z" fill="white"/>
<path d="M50.1001 47.8V0H62.8002V46.3C62.8002 48.9 64.1001 50.2 66.4001 50.2H68.0001V61.3H63.7001C54.9001 61.3 50.1001 56.2 50.1001 47.8Z" fill="white"/>
<path d="M73 39.7C73 26.9 82.3 17 96.3 17C110.1 17 119.5 26.9 119.5 39.7C119.5 52.5 110.1 62.4 96.2 62.4C82.4 62.4 73 52.5 73 39.7ZM106.7 39.7C106.7 33.2 102.3 28.5 96.2 28.5C90.2 28.5 85.8 33.2 85.8 39.7C85.8 46.3 90.2 50.9 96.2 50.9C102.3 51 106.7 46.3 106.7 39.7Z" fill="white"/>
<path d="M125.4 39.7C125.4 26.9 134.7 17 148.7 17C162.5 17 171.9 26.9 171.9 39.7C171.9 52.5 162.5 62.4 148.6 62.4C134.9 62.4 125.4 52.5 125.4 39.7ZM159.2 39.7C159.2 33.2 154.8 28.5 148.7 28.5C142.7 28.5 138.3 33.2 138.3 39.7C138.3 46.3 142.7 50.9 148.7 50.9C154.7 51 159.2 46.3 159.2 39.7Z" fill="white"/>
<path d="M180.4 18.1001H192.3V22.8H193C194.8 19.9 198.6 17.1001 204.3 17.1001C209.9 17.1001 214.2 19.3001 216.8 23.0001H217.4C220.4 19.0001 224.5 17.1001 229.9 17.1001C239.3 17.1001 245.6 23.3 245.6 32.3V61.4001H232.9V36.7001C232.9 32.0001 230.8 28.8 226.4 28.8C222.2 28.8 219.4 32.2001 219.4 37.1001V61.3H206.7V36.3C206.7 31.9 204.3 28.8 200 28.8C195.8 28.8 193 32.3001 193 37.0001V61.3H180.3V18.1001H180.4Z" fill="white"/>
</svg>
