<svg width="63" height="27.000000000000004" xmlns="http://www.w3.org/2000/svg" fill="none">
 <g>
  <path stroke="#6F778A" stroke-linejoin="round" stroke-linecap="square" stroke-width="2" d="m1.59184,7.13333l2.7725,-3.61762c0.5858,-0.76437 1.73743,-0.76437 2.32323,-0.00001l1.61089,2.10193c0.5858,0.76436 1.73748,0.76436 2.32328,0l1.6108,-2.10192c0.5858,-0.76437 1.7375,-0.76437 2.3233,-0.00001l1.6109,2.10193c0.5858,0.76436 1.7374,0.76436 2.3232,0l1.6109,-2.10192c0.5858,-0.76437 1.7374,-0.76437 2.3232,-0.00001l1.6109,2.10193c0.5858,0.76436 1.7374,0.76436 2.3232,0l1.6109,-2.10192c0.5858,-0.76437 1.7374,-0.76437 2.3232,-0.00001l1.6109,2.10193c0.5858,0.76436 1.7375,0.76436 2.3233,0l1.6108,-2.10192c0.5858,-0.76437 1.7375,-0.76437 2.3233,-0.00001l1.6109,2.10193c0.5858,0.76436 1.7374,0.76436 2.3232,0l1.6109,-2.10192c0.5858,-0.76437 1.7374,-0.76437 2.3232,-0.00001l1.6109,2.10193c0.5858,0.76436 1.7374,0.76436 2.3232,0l1.6109,-2.10192c0.5858,-0.76437 1.7374,-0.76437 2.3232,-0.00001l1.6109,2.10193c0.5858,0.76436 1.7375,0.76436 2.3233,0l2.7725,-3.61763"/>
  <path stroke="#6F778A" stroke-linejoin="round" stroke-linecap="square" stroke-width="2" d="m1.59184,16.11288l2.7725,-3.61762c0.5858,-0.76437 1.73743,-0.76437 2.32323,-0.00001l1.61089,2.10193c0.5858,0.76436 1.73748,0.76436 2.32328,0l1.6108,-2.10192c0.5858,-0.76437 1.7375,-0.76437 2.3233,-0.00001l1.6109,2.10193c0.5858,0.76436 1.7374,0.76436 2.3232,0l1.6109,-2.10192c0.5858,-0.76437 1.7374,-0.76437 2.3232,-0.00001l1.6109,2.10193c0.5858,0.76436 1.7374,0.76436 2.3232,0l1.6109,-2.10192c0.5858,-0.76437 1.7374,-0.76437 2.3232,-0.00001l1.6109,2.10193c0.5858,0.76436 1.7375,0.76436 2.3233,0l1.6108,-2.10192c0.5858,-0.76437 1.7375,-0.76437 2.3233,-0.00001l1.6109,2.10193c0.5858,0.76436 1.7374,0.76436 2.3232,0l1.6109,-2.10192c0.5858,-0.76437 1.7374,-0.76437 2.3232,-0.00001l1.6109,2.10193c0.5858,0.76436 1.7374,0.76436 2.3232,0l1.6109,-2.10192c0.5858,-0.76437 1.7374,-0.76437 2.3232,-0.00001l1.6109,2.10193c0.5858,0.76436 1.7375,0.76436 2.3233,0l2.7725,-3.61763"/>
  <path stroke="#6F778A" stroke-linejoin="round" stroke-linecap="square" stroke-width="2" d="m1.59184,25.09243l2.7725,-3.61762c0.5858,-0.76437 1.73743,-0.76437 2.32323,-0.00001l1.61089,2.10193c0.5858,0.76436 1.73748,0.76436 2.32328,0l1.6108,-2.10192c0.5858,-0.76437 1.7375,-0.76437 2.3233,-0.00001l1.6109,2.10193c0.5858,0.76436 1.7374,0.76436 2.3232,0l1.6109,-2.10192c0.5858,-0.76437 1.7374,-0.76437 2.3232,-0.00001l1.6109,2.10193c0.5858,0.76436 1.7374,0.76436 2.3232,0l1.6109,-2.10192c0.5858,-0.76437 1.7374,-0.76437 2.3232,-0.00001l1.6109,2.10193c0.5858,0.76436 1.7375,0.76436 2.3233,0l1.6108,-2.10192c0.5858,-0.76437 1.7375,-0.76437 2.3233,-0.00001l1.6109,2.10193c0.5858,0.76436 1.7374,0.76436 2.3232,0l1.6109,-2.10192c0.5858,-0.76437 1.7374,-0.76437 2.3232,-0.00001l1.6109,2.10193c0.5858,0.76436 1.7374,0.76436 2.3232,0l1.6109,-2.10192c0.5858,-0.76437 1.7374,-0.76437 2.3232,-0.00001l1.6109,2.10193c0.5858,0.76436 1.7375,0.76436 2.3233,0l2.7725,-3.61763"/>
 </g>
</svg>