<svg width="107" height="104" viewBox="0 0 107 104" fill="none" xmlns="http://www.w3.org/2000/svg">
  <path opacity="0.3" d="M34.2792 19.4667C33.8792 22.5667 34.0791 25.7667 34.5791 29.0667C38.7791 31.0667 42.8792 33.6667 46.3792 36.6667C60.3792 48.6667 54.7791 54.3667 53.1791 54.8667C55.4791 53.7667 57.3792 50.3667 56.2792 32.3667C54.4792 2.2667 35.6792 9.46673 34.2792 19.4667Z" fill="#3C00A6"/>
  <path opacity="0.3" d="M13.6793 61.9667C16.4793 63.2667 19.5793 64.1667 22.8793 64.5667C26.0793 61.1667 29.8794 58.0667 33.7794 55.6667C49.4794 45.9667 53.2794 53.1667 53.2794 54.7667C52.9794 52.1667 50.2793 49.3667 32.8793 44.8667C3.57934 37.4667 4.57933 57.5667 13.6793 61.9667Z" fill="#3C00A6"/>
  <path opacity="0.3" d="M47.7797 94.6667C49.8797 92.3667 51.6796 89.6667 53.1796 86.7667C50.8796 82.6667 49.1796 78.0667 48.0796 73.6667C43.7796 55.7667 51.6797 54.3666 53.2797 54.8666C50.7797 54.3666 47.1796 56.0667 37.5796 71.2667C21.3796 96.7667 40.7797 101.967 47.7797 94.6667Z" fill="#3C00A6"/>
  <path opacity="0.3" d="M89.479 72.3666C87.979 69.6666 85.979 67.1666 83.579 64.8666C78.979 65.7666 74.079 65.9667 69.479 65.6667C51.079 64.2667 52.279 56.2667 53.279 54.9667C52.079 57.2667 52.579 61.0667 63.979 74.9667C83.279 98.1667 94.179 81.2666 89.479 72.3666Z" fill="#3C00A6"/>
  <path opacity="0.3" d="M81.0792 25.8666C78.0792 26.4666 74.9792 27.5666 72.0792 29.1666C71.4792 33.7666 70.2792 38.5666 68.4792 42.7666C61.4792 59.7666 54.1793 56.1666 53.2793 54.8666C55.0793 56.7666 58.8792 57.4666 75.5792 50.8666C103.679 39.6666 91.0792 24.0666 81.0792 25.8666Z" fill="#3C00A6"/>
  <path fill-rule="evenodd" clip-rule="evenodd" d="M53.7091 15.3899C55.9336 19.1037 57.4837 24.5903 57.9429 32.265C58.4944 41.289 58.3078 46.815 57.6407 50.2701C57.4375 51.3229 57.1831 52.2201 56.8723 52.9851C56.677 53.5258 56.4267 54.0073 56.1447 54.4278C55.4603 55.4484 54.5277 56.1914 53.6764 56.4575L52.4602 53.3631C52.7773 53.2114 53.0815 52.9925 53.386 52.518C53.5073 52.3291 53.6329 52.0926 53.7577 51.7946C53.9064 51.3595 53.9977 50.8199 53.9647 50.1628C53.8493 47.8643 52.176 43.8304 45.2947 37.9321C41.9165 35.0365 37.9427 32.5143 33.8627 30.5714L33.064 30.1911L32.9314 29.3163C32.4186 25.9314 32.1993 22.5633 32.6264 19.2534L32.6275 19.2445L32.6288 19.2356C33.0445 16.2664 34.7322 13.5781 37.0049 11.736C39.2809 9.89123 42.2697 8.79685 45.3599 9.22856C48.4981 9.66697 51.4625 11.6393 53.7091 15.3899ZM54.9114 43.5021C53.3644 41.1023 50.9717 38.4079 47.464 35.4013C44.0682 32.4906 40.1409 29.9549 36.1033 27.9542C35.7124 25.0613 35.5932 22.3167 35.9311 19.6892C36.2176 17.6614 37.4039 15.7034 39.1038 14.3255C40.8028 12.9484 42.889 12.249 44.8987 12.5298C46.8606 12.8039 49.0212 14.0503 50.8496 17.1028C52.6998 20.1918 54.1747 25.092 54.6157 32.4662L54.6158 32.4683C54.8972 37.0725 54.978 40.6762 54.9114 43.5021Z" fill="#3C00A6"/>
  <path fill-rule="evenodd" clip-rule="evenodd" d="M39.3425 10.1486C41.1732 9.25941 43.2502 8.84001 45.376 9.14146C48.519 9.58716 51.4907 11.5681 53.7504 15.3303C55.9887 19.0568 57.5584 24.5613 58.0428 32.262L58.043 32.2649C58.5945 41.2889 58.4079 46.8149 57.7409 50.27C57.4053 52.0088 56.9302 53.3232 56.2915 54.3184C56.2692 54.3531 56.2468 54.3873 56.2242 54.4211C56.7185 54.4445 57.3138 54.3709 57.9969 54.1098C60.1643 53.2814 63.499 50.4338 66.937 42.0352L66.9423 42.0225L66.9423 42.0225C69.0727 36.9386 70.4509 31.1511 70.7401 25.691C71.0307 20.2062 70.2152 15.2177 68.1362 11.6002C65.4999 7.0566 60.7188 3.3333 53.2795 3.3333C46.6013 3.3333 42.1033 6.32338 39.3425 10.1486ZM36.1927 8.84213C39.4719 3.92335 45.0704 0 53.2795 0C62.0388 0 67.8571 4.47523 71.0211 9.93044L71.0243 9.93584C73.5441 14.3181 74.3781 20.0285 74.0688 25.8673C73.7582 31.7298 72.2874 37.8897 70.0193 43.3042C66.4581 52.0014 62.6439 55.9022 59.187 57.2234C57.4398 57.8913 55.8604 57.865 54.6078 57.5205C53.4391 57.199 52.4225 56.5568 51.9092 55.8153L50.7958 54.207L52.5604 53.3631C52.8775 53.2114 53.1817 52.9924 53.4863 52.5179C53.8163 52.0037 54.1787 51.1369 54.4681 49.6382C55.051 46.6184 55.2645 41.4445 54.716 32.4688C54.2503 25.0709 52.7576 20.151 50.8929 17.0466C49.0495 13.9776 46.8775 12.721 44.908 12.4417C42.8919 12.1558 40.8037 12.853 39.1044 14.2279C37.4015 15.6057 36.2144 17.5669 35.9301 19.5977L32.623 19.1826C33.047 15.3666 34.2198 11.8014 36.1927 8.84213Z" fill="#3C00A6"/>
  <path fill-rule="evenodd" clip-rule="evenodd" d="M7.38188 48.2593C10.2253 42.4474 18.5042 39.5173 33.2871 43.2508L33.2963 43.2531L33.2963 43.2532C42.0164 45.5084 47.2131 47.3747 50.2944 49.0688C51.8451 49.9213 52.9543 50.7801 53.7056 51.7052C54.2188 52.3372 54.5409 52.9707 54.7324 53.5972C54.8719 54.007 54.9456 54.4055 54.9456 54.7668L51.6233 54.9578C51.6107 54.8481 51.5915 54.7385 51.5609 54.6269C51.5041 54.4739 51.3857 54.217 51.1409 53.9124C50.7529 53.4298 50.086 52.8868 48.9815 52.5881C46.7354 51.9808 42.3648 52.3212 34.655 57.0846L34.6525 57.0862C30.8794 59.4081 27.1934 62.4144 24.0926 65.709L23.515 66.3227L22.6784 66.2213C19.2058 65.8004 15.9365 64.8525 12.9771 63.4784L12.9652 63.4729L12.9535 63.4672C10.2508 62.1604 8.21161 59.7279 7.16344 56.9948C6.11353 54.2571 6.00543 51.0727 7.38188 48.2593ZM43.0324 49.5953C40.3684 48.6646 36.9215 47.6338 32.4663 46.4815C17.9525 42.8169 12.0824 46.2365 10.376 49.7242C9.47749 51.5608 9.49438 53.7639 10.2757 55.8012C11.0572 57.839 12.551 59.566 14.3931 60.4608C16.7988 61.5763 19.445 62.3815 22.2612 62.8016C25.4308 59.5415 29.1176 56.5785 32.9043 54.2481C36.8992 51.78 40.2415 50.3187 43.0324 49.5953Z" fill="#3C00A6"/>
  <path fill-rule="evenodd" clip-rule="evenodd" d="M30.8922 29.2844C25.7675 27.3096 20.7893 26.539 16.7232 27.3974L16.7223 27.3976C11.5501 28.4864 6.56433 31.901 4.26537 38.9776C2.24193 45.3158 3.7543 50.5663 6.5193 54.3487C6.23398 52.3259 6.47326 50.2111 7.41858 48.2734C8.80939 45.4226 11.6049 43.2064 15.8761 42.2165C20.1063 41.2361 25.8212 41.4397 33.2923 43.3521L33.2963 43.3531C42.0165 45.6083 47.2131 47.4747 50.2944 49.1687C51.8451 50.0212 52.9543 50.88 53.7056 51.8051C53.7269 51.8313 53.7479 51.8576 53.7686 51.8838C53.94 51.4226 54.0502 50.8411 54.0144 50.1249C53.8991 47.8178 52.2295 43.7852 45.304 37.9404L45.2992 37.9362C41.0814 34.3487 35.992 31.2495 30.8922 29.2844ZM47.4563 35.395C42.9745 31.5834 37.565 28.2835 32.0908 26.174C26.6408 24.0739 20.9693 23.0945 16.0356 24.1358M47.4563 35.395C54.6291 41.4492 57.1589 46.2659 57.3436 49.9584C57.4369 51.8245 56.9214 53.3156 56.2099 54.3998C55.542 55.4176 54.6316 56.1726 53.806 56.4478L51.8586 57.0969L51.6233 55.0577C51.5818 54.6979 51.47 54.3398 51.118 53.9064C50.7349 53.4346 50.0254 52.8246 48.6885 52.0896C45.995 50.6088 41.1423 48.8253 32.4638 46.5808C25.2859 44.7437 20.1513 44.6473 16.6287 45.4637C13.1468 46.2707 11.2861 47.9482 10.4144 49.735C9.52176 51.5645 9.54022 53.7657 10.3188 55.805C11.0992 57.8491 12.5883 59.5783 14.411 60.4694L12.9893 63.4839C9.51423 61.9044 6.47053 59.7564 4.26313 56.8896C0.66293 52.3037 -1.39353 45.7383 1.09135 37.9595L1.09376 37.952L1.09377 37.952C3.79523 29.6315 9.80813 25.4471 16.0347 24.136" fill="#3C00A6"/>
  <path fill-rule="evenodd" clip-rule="evenodd" d="M49.6977 73.2699C50.7683 77.5495 52.4182 82.0039 54.6325 85.9513L55.072 86.7346L54.6593 87.5324C53.1051 90.5372 51.2257 93.3636 49.0099 95.7905L48.9961 95.8055L48.982 95.8202C46.9048 97.9865 43.9644 99.1793 41.0458 99.3402C38.123 99.5014 35.0646 98.6331 32.821 96.4653C30.5434 94.2647 29.3082 90.9225 29.6938 86.5606C30.0757 82.2404 32.0411 76.8762 36.1711 70.3748C40.984 62.7545 44.3763 58.3785 46.9514 55.9635C48.247 54.7485 49.4094 53.9585 50.5168 53.5276C51.1718 53.2726 51.7837 53.1527 52.3588 53.1305C52.8832 53.099 53.3698 53.1489 53.7762 53.2759L52.9522 56.501C52.8182 56.4742 52.6779 56.4572 52.5233 56.4603C52.3477 56.4735 52.0914 56.5155 51.7777 56.6345C51.2015 56.8529 50.4852 57.317 49.8649 58.2735C48.6012 60.2221 47.5876 64.4812 49.6977 73.2699ZM45.1856 63.0604C45.0188 65.9249 45.3716 69.5316 46.4584 74.056L46.4602 74.0635L46.4621 74.0709C47.521 78.3066 49.1248 82.7397 51.2857 86.7794C49.9322 89.2676 48.3552 91.5609 46.5625 93.5273C45.1399 95.0026 43.0368 95.8921 40.8623 96.012C38.6851 96.132 36.5935 95.4753 35.1371 94.0681C33.7147 92.6937 32.6998 90.4109 33.0142 86.8541C33.3322 83.2559 35.0166 78.4082 38.9858 72.1604L38.9881 72.1567C41.4407 68.2734 43.4787 65.3105 45.1856 63.0604Z" fill="#3C00A6"/>
  <path fill-rule="evenodd" clip-rule="evenodd" d="M48.9926 52.6875C46.7623 52.0819 42.4188 52.4195 34.7595 57.182L34.7561 57.1841C30.0503 60.0949 25.5203 63.9747 22.0729 68.2176C18.6083 72.4817 16.3441 76.9787 15.9381 81.1289L15.9372 81.1382H15.9372C15.3902 86.4253 17.0006 92.2109 23.057 96.6169C28.3935 100.465 33.7491 100.634 38.2819 99.2094C36.2819 98.8502 34.3585 97.9682 32.8192 96.4757C30.5439 94.2696 29.3086 90.9259 29.6942 86.5621C30.076 82.2404 32.0414 76.8762 36.1714 70.3748C40.9843 62.7545 44.3767 58.3784 46.9518 55.9635C48.2473 54.7484 49.4098 53.9585 50.5171 53.5275C50.5512 53.5143 50.5852 53.5014 50.6191 53.4888C50.2296 53.1743 49.7014 52.88 48.9926 52.6875ZM53.7423 51.9257C54.5043 52.8763 54.9461 53.9829 54.9461 54.8666V56.8996L52.9526 56.5009C52.6219 56.4348 52.2526 56.4289 51.7261 56.6339C51.1553 56.856 50.3489 57.3473 49.232 58.3948C46.9823 60.5047 43.7749 64.5781 38.9885 72.1566L38.9861 72.1604C35.0169 78.4081 33.3326 83.2558 33.0145 86.8555C32.7001 90.4136 33.7148 92.7012 35.1395 94.0826C36.5983 95.497 38.6927 96.1618 40.8718 96.0536C43.0557 95.9452 45.1645 95.0653 46.5844 93.6049L49.0251 95.8739C46.4587 98.7612 43.3336 100.929 40.0531 102.131L40.0436 102.135L40.0341 102.138C34.4996 104.092 27.7125 104.085 21.1043 99.3184L21.0991 99.3145C13.9594 94.1221 11.9695 87.1107 12.6211 80.7998C13.1163 75.7516 15.8015 70.6502 19.4859 66.1157C23.1881 61.5591 28.0074 57.4393 33.001 54.3503C40.9407 49.4137 46.2968 48.5015 49.8662 49.4707C51.6689 49.9603 52.9296 50.912 53.7423 51.9257Z" fill="#3C00A6"/>
  <path fill-rule="evenodd" clip-rule="evenodd" d="M69.5965 64.0042C74.0772 64.2958 78.8271 64.0982 83.259 63.2311L84.1078 63.065L84.7322 63.6634C87.2328 66.0598 89.3427 68.6894 90.936 71.5573L90.9446 71.5728L90.9528 71.5884C92.3483 74.2309 92.5585 77.3951 91.8015 80.2213C91.0433 83.0521 89.2704 85.6978 86.5161 87.1733C83.7195 88.6715 80.1577 88.8324 76.1209 87.136C72.1232 85.4561 67.6194 81.9487 62.6978 76.0326L62.6904 76.0237L62.6904 76.0236C56.9768 69.0571 53.8891 64.4991 52.3961 61.3264C51.99 60.4635 51.6888 59.6764 51.4861 58.949C51.2639 58.289 51.1569 57.6475 51.1354 57.0501C51.0915 55.8293 51.4065 54.6676 51.9581 53.9506L54.7567 55.7377C54.5843 56.0682 54.4694 56.4362 54.505 57.003C54.5214 57.2645 54.5708 57.5802 54.6722 57.9631C54.8151 58.3584 55.0456 58.7894 55.4042 59.2364C56.844 61.0314 60.5623 63.3155 69.5965 64.0042ZM58.5935 65.1998C60.193 67.5126 62.3602 70.3645 65.2641 73.9054C69.9909 79.5864 74.0858 82.6652 77.4122 84.063C80.7005 85.4448 83.1887 85.1744 84.942 84.2351C86.7377 83.2731 88.0149 81.475 88.5817 79.3589C89.1481 77.2441 88.9609 74.9651 88.0132 73.16C86.7331 70.8597 85.0539 68.693 83.0313 66.6636C78.5245 67.4573 73.8019 67.6189 69.3706 67.3299L69.3616 67.3293L69.3526 67.3286C64.7649 66.9795 61.2535 66.2213 58.5935 65.1998Z" fill="#3C00A6"/>
  <path fill-rule="evenodd" clip-rule="evenodd" d="M49.699 73.2745C51.0081 78.6054 53.3121 84.104 56.2902 88.6976C59.2824 93.3131 62.8577 96.8674 66.6417 98.5374C71.5912 100.643 77.5492 100.916 83.5944 96.5221C88.9776 92.5487 90.8436 87.463 90.8259 82.7278C89.8706 84.5522 88.4294 86.1412 86.5131 87.1625C83.7141 88.6543 80.1515 88.803 76.116 87.0917C72.1194 85.3969 67.6166 81.8707 62.6957 75.9299L62.6905 75.9236L62.6905 75.9236C56.977 68.9571 53.8892 64.3991 52.3962 61.2264C51.6446 59.6292 51.2524 58.2918 51.1784 57.1117C51.1743 57.0466 51.1712 56.9822 51.169 56.9185C50.7383 57.1861 50.2791 57.6008 49.863 58.2393C48.6027 60.173 47.5867 64.4292 49.699 73.2745ZM47.0704 56.4192C49.1007 53.304 52.2386 52.7954 53.7764 53.2759L55.6789 53.8705L54.7569 55.6377C54.5844 55.9681 54.4696 56.3362 54.5051 56.903C54.5436 57.5166 54.7639 58.4293 55.4122 59.8071C56.719 62.5839 59.5806 66.8751 65.2654 73.8068C69.9933 79.5139 74.0896 82.6118 77.4174 84.023C80.7069 85.4179 83.1942 85.1542 84.9453 84.2209C86.7387 83.2651 88.0152 81.4714 88.5819 79.3571C89.1497 77.2383 88.96 74.9526 88.0054 73.145L90.9205 71.5298C92.8449 74.8441 93.9264 78.3949 94.1428 81.9659L94.144 81.9855L94.1447 82.0051C94.3631 87.9017 92.1538 94.35 85.5686 99.2079L85.5595 99.2146L85.5594 99.2146C78.41 104.414 71.1735 104.091 65.3261 101.6L65.3167 101.596L65.3074 101.592C60.6948 99.5602 56.6735 95.4165 53.4932 90.5109C50.2972 85.581 47.8517 79.7316 46.4606 74.0641L46.4581 74.054L46.4581 74.054C44.272 64.9027 45.0559 59.5101 47.0704 56.4192Z" fill="#3C00A6"/>
  <path fill-rule="evenodd" clip-rule="evenodd" d="M90.958 43.0751C88.1071 46.3572 83.3614 49.559 76.1965 52.4148L76.192 52.4165C67.822 55.7244 62.5335 57.2672 59.051 57.7075C57.2978 57.9292 55.8994 57.8862 54.7495 57.5827C54.2303 57.4457 53.7782 57.2599 53.3802 57.0379C52.7501 56.7054 52.2308 56.2798 51.9092 55.8152L54.4894 53.7203C54.6285 53.8672 54.7835 54.0008 54.9835 54.1152C55.113 54.1802 55.2817 54.2499 55.4943 54.3087C56.0842 54.472 56.9375 54.5225 58.003 54.12C60.1689 53.3017 63.5015 50.4786 66.9383 42.132L66.9429 42.121L66.9475 42.1101C68.677 38.0747 69.8429 33.4273 70.4268 28.951L70.5358 28.1147L71.2743 27.7073C74.3277 26.0227 77.5896 24.8649 80.7526 24.2323L80.7683 24.2291L80.7842 24.2263C83.7471 23.6929 86.833 24.4522 89.2931 26.0374C91.7567 27.6249 93.7205 30.127 94.2587 33.2045C94.8047 36.327 93.8355 39.7625 90.958 43.0751ZM64.6149 53.0102C67.3097 52.1971 70.6946 51.005 74.9647 49.3174C81.8484 46.5735 86.0645 43.6256 88.4415 40.8892C90.7921 38.1832 91.3166 35.7311 90.9752 33.7787C90.6259 31.7811 89.3208 30.0207 87.4876 28.8394C85.6554 27.6588 83.4229 27.1427 81.3899 27.5041C78.8078 28.0221 76.1423 28.9334 73.6142 30.2367C72.9658 34.6954 71.7715 39.3127 70.016 43.4121C68.2531 47.6913 66.428 50.8016 64.6149 53.0102Z" fill="#3C00A6"/>
  <path fill-rule="evenodd" clip-rule="evenodd" d="M91.4364 27.8584C92.8484 29.3241 93.8891 31.1676 94.2584 33.2796C94.8046 36.4026 93.8351 39.8329 90.9555 43.1342C88.1033 46.404 83.3565 49.5865 76.1918 52.4167C67.8218 55.7246 62.5333 57.2674 59.0508 57.7077C57.2976 57.9294 55.8992 57.8864 54.7493 57.5829C54.6901 57.5673 54.6319 57.551 54.5744 57.5342C54.6996 58.0126 54.9506 58.5589 55.4134 59.1322C56.8656 60.9305 60.6123 63.2168 69.705 63.9049L69.7104 63.9053C75.239 64.3417 81.1743 63.8785 86.4526 62.4807C91.7526 61.077 96.2321 58.7743 99.035 55.658C102.494 51.7412 104.586 46.0484 102.296 38.9875C100.184 32.6574 95.9403 29.3305 91.4364 27.8584ZM80.7524 24.2325C84.4545 23.492 88.2274 23.4771 91.7305 24.4623L91.7412 24.4654L91.7412 24.4654C97.4091 26.1004 102.868 30.1633 105.46 37.9397L105.465 37.9521L105.464 37.9521C108.17 46.2853 105.666 53.1885 101.528 57.8704L101.519 57.8807L101.519 57.8807C98.1215 61.6617 92.9531 64.2073 87.3059 65.7029C81.6351 67.2047 75.3214 67.6916 69.4507 67.2284C60.0452 66.5163 55.1427 64.1027 52.8201 61.2263C51.6445 59.7705 51.1863 58.2574 51.1372 56.9529C51.0912 55.7303 51.4065 54.5679 51.9583 53.8506L53.1476 52.3044L54.4892 53.7205C54.7453 53.9908 55.0552 54.2162 55.5999 54.36C56.1906 54.5159 57.1234 54.5916 58.6327 54.4008C61.6751 54.0161 66.6366 52.6089 74.9666 49.3167L74.9669 49.3166C81.852 46.5969 86.0676 43.6669 88.4435 40.9431C90.7921 38.2506 91.3163 35.8059 90.975 33.8538C90.6255 31.8552 89.319 30.0867 87.4817 28.8921C85.6409 27.6953 83.3975 27.1632 81.3585 27.5098L80.7524 24.2325Z" fill="#3C00A6"/>
</svg>