<svg width="150" height="42" viewBox="0 0 150 42" fill="none" xmlns="http://www.w3.org/2000/svg">
<path d="M52.431 11.4473H61.3298C65.819 11.4473 68.4012 14.0428 68.4012 17.5169C68.4012 19.5934 67.408 21.1907 65.8189 22.1491V22.3487C67.3286 23.0276 69.1163 24.6648 69.1163 27.6198C69.1163 31.8526 65.7395 34.3284 62.0052 34.3284H52.431V11.4473ZM60.6545 20.6317C62.3627 20.6317 63.3559 19.5535 63.3559 18.0361C63.3559 16.6384 62.2833 15.6401 60.6942 15.6401H57.3572V20.5917H60.6545V20.6317ZM60.6545 29.9758C62.4422 29.9758 63.6737 29.0573 63.6737 27.1007C63.6737 25.2238 62.2435 24.3453 60.575 24.3453H57.3174V29.9758H60.6545Z" fill="#3C00A6"/>
<path d="M72.3341 28.8976V9.81006H77.3794V28.2986C77.3794 29.3369 77.8959 29.856 78.8096 29.856H79.4452V34.2885H77.7369C74.241 34.2885 72.3341 32.2519 72.3341 28.8976Z" fill="#3C00A6"/>
<path d="M81.4316 25.6632C81.4316 20.5519 85.1262 16.5986 90.6879 16.5986C96.1702 16.5986 99.9045 20.5519 99.9045 25.6632C99.9045 30.7746 96.1702 34.7278 90.6482 34.7278C85.1659 34.7278 81.4316 30.7746 81.4316 25.6632ZM94.8195 25.6632C94.8195 23.0676 93.0715 21.1908 90.6482 21.1908C88.2646 21.1908 86.5166 23.0676 86.5166 25.6632C86.5166 28.2988 88.2646 30.1356 90.6482 30.1356C93.0715 30.1756 94.8195 28.2988 94.8195 25.6632Z" fill="#3C00A6"/>
<path d="M102.248 25.6632C102.248 20.5519 105.943 16.5986 111.505 16.5986C116.987 16.5986 120.721 20.5519 120.721 25.6632C120.721 30.7746 116.987 34.7278 111.465 34.7278C106.022 34.7278 102.248 30.7746 102.248 25.6632ZM115.676 25.6632C115.676 23.0676 113.928 21.1908 111.505 21.1908C109.121 21.1908 107.373 23.0676 107.373 25.6632C107.373 28.2988 109.121 30.1356 111.505 30.1356C113.888 30.1756 115.676 28.2988 115.676 25.6632Z" fill="#3C00A6"/>
<path d="M124.098 17.0377H128.826V18.9145H129.104C129.819 17.7565 131.328 16.6384 133.593 16.6384C135.818 16.6384 137.526 17.5169 138.559 18.9944H138.797C139.989 17.3971 141.618 16.6384 143.763 16.6384C147.497 16.6384 150 19.1142 150 22.7081V34.3284H144.955V24.4651C144.955 22.5883 144.12 21.3105 142.373 21.3105C140.704 21.3105 139.592 22.6682 139.592 24.6249V34.2884H134.546V24.3054C134.546 22.5484 133.593 21.3105 131.885 21.3105C130.216 21.3105 129.104 22.7081 129.104 24.5849V34.2884H124.058V17.0377H124.098Z" fill="#3C00A6"/>
<path opacity="0.3" d="M13.6181 7.77339C13.4592 9.01129 13.5386 10.2891 13.7373 11.6069C15.4058 12.4055 17.0346 13.4438 18.425 14.6417C23.9868 19.4336 21.7621 21.7097 21.1264 21.9094C22.0402 21.4701 22.795 20.1124 22.358 12.9246C21.6429 0.905047 14.1743 3.78018 13.6181 7.77339Z" fill="#3C00A6"/>
<path opacity="0.3" d="M5.43427 24.7446C6.54662 25.2638 7.77816 25.6231 9.08914 25.7829C10.3604 24.4252 11.87 23.1873 13.4194 22.2289C19.6565 18.3555 21.1661 21.2306 21.1661 21.8695C21.0469 20.8313 19.9743 19.7132 13.0618 17.9162C1.42187 14.9612 1.81914 22.9876 5.43427 24.7446Z" fill="#3C00A6"/>
<path opacity="0.3" d="M18.9813 37.8026C19.8155 36.8841 20.5306 35.8059 21.1265 34.6479C20.2128 33.0107 19.5374 31.1738 19.1004 29.4168C17.3922 22.2689 20.5306 21.7099 21.1662 21.9095C20.1731 21.7099 18.7429 22.3887 14.9291 28.4584C8.49336 38.6411 16.2004 40.7176 18.9813 37.8026Z" fill="#3C00A6"/>
<path opacity="0.3" d="M35.5472 28.8976C34.9513 27.8195 34.1568 26.8212 33.2033 25.9027C31.3759 26.2621 29.4293 26.342 27.6019 26.2222C20.2921 25.6632 20.7689 22.4686 21.1661 21.9495C20.6894 22.8679 20.888 24.3853 25.4169 29.9359C33.0842 39.2002 37.4144 32.4516 35.5472 28.8976Z" fill="#3C00A6"/>
<path opacity="0.3" d="M32.2102 10.329C31.0184 10.5686 29.7868 11.0079 28.6347 11.6468C28.3964 13.4837 27.9197 15.4004 27.2046 17.0776C24.4237 23.866 21.5237 22.4285 21.1661 21.9093C21.8812 22.668 23.3908 22.9476 30.0252 20.312C41.1884 15.8396 36.1828 9.61023 32.2102 10.329Z" fill="#3C00A6"/>
<path fill-rule="evenodd" clip-rule="evenodd" d="M21.3369 6.14558C22.2207 7.62858 22.8364 9.81946 23.0189 12.8842C23.2379 16.4876 23.1638 18.6943 22.8988 20.074C22.8181 20.4944 22.717 20.8526 22.5936 21.1581C22.516 21.3741 22.4165 21.5663 22.3045 21.7342C22.0326 22.1418 21.6621 22.4385 21.3239 22.5447L20.8408 21.3091C20.9667 21.2485 21.0876 21.1611 21.2086 20.9716C21.2567 20.8962 21.3067 20.8017 21.3562 20.6828C21.4153 20.509 21.4516 20.2935 21.4385 20.0311C21.3926 19.1133 20.7279 17.5025 17.9941 15.1472C16.6521 13.9909 15.0734 12.9837 13.4526 12.2079L13.1353 12.056L13.0826 11.7067C12.8789 10.355 12.7918 9.01007 12.9614 7.68835L12.9619 7.68479L12.9624 7.68124C13.1275 6.49558 13.798 5.42207 14.7009 4.68648C15.6051 3.94983 16.7924 3.51282 18.0201 3.68521C19.2668 3.86028 20.4444 4.64785 21.3369 6.14558ZM21.8146 17.3714C21.2 16.4131 20.2494 15.3371 18.8559 14.1365C17.5069 12.9742 15.9467 11.9617 14.3427 11.1628C14.1874 10.0076 14.14 8.91157 14.2743 7.86237C14.3881 7.05264 14.8594 6.27074 15.5347 5.72053C16.2097 5.17062 17.0384 4.89135 17.8368 5.00347C18.6162 5.11291 19.4746 5.61065 20.2009 6.82955C20.936 8.06305 21.5219 10.0198 21.6971 12.9645L21.6971 12.9653C21.8089 14.8039 21.841 16.2429 21.8146 17.3714Z" fill="#3C00A6"/>
<path fill-rule="evenodd" clip-rule="evenodd" d="M15.6295 4.05255C16.3567 3.69748 17.1819 3.53001 18.0264 3.65038C19.275 3.82836 20.4555 4.61941 21.3532 6.12173C22.2424 7.6098 22.866 9.80785 23.0585 12.8829L23.0586 12.8841C23.2776 16.4875 23.2035 18.6942 22.9385 20.0739C22.8052 20.7682 22.6165 21.2931 22.3627 21.6905C22.3539 21.7044 22.345 21.718 22.336 21.7315C22.5324 21.7409 22.7689 21.7115 23.0403 21.6072C23.9013 21.2764 25.2261 20.1393 26.5919 16.7856L26.5939 16.7805L26.594 16.7805C27.4403 14.7504 27.9878 12.4393 28.1027 10.259C28.2182 8.06877 27.8942 6.07677 27.0683 4.63222C26.0209 2.81785 24.1216 1.33106 21.1662 1.33106C18.5131 1.33106 16.7262 2.52506 15.6295 4.05255ZM14.3781 3.53086C15.6808 1.56668 17.905 0 21.1662 0C24.646 0 26.9574 1.78706 28.2143 3.96544L28.2156 3.9676C29.2166 5.71754 29.548 7.99781 29.4251 10.3294C29.3017 12.6704 28.7174 15.1302 27.8164 17.2923C26.4016 20.7653 24.8863 22.3229 23.513 22.8506C22.8189 23.1172 22.1915 23.1067 21.6939 22.9692C21.2296 22.8408 20.8257 22.5843 20.6218 22.2882L20.1795 21.646L20.8805 21.309C21.0065 21.2485 21.1273 21.161 21.2483 20.9715C21.3794 20.7662 21.5234 20.4201 21.6383 19.8216C21.8699 18.6157 21.9547 16.5497 21.7368 12.9655C21.5518 10.0113 20.9588 8.04675 20.2181 6.80709C19.4857 5.58154 18.6229 5.07979 17.8404 4.96826C17.0395 4.85409 16.2099 5.13248 15.5349 5.6815C14.8584 6.23169 14.3867 7.01483 14.2738 7.82578L12.96 7.66001C13.1285 6.13621 13.5944 4.71256 14.3781 3.53086Z" fill="#3C00A6"/>
<path fill-rule="evenodd" clip-rule="evenodd" d="M2.93257 19.2709C4.06219 16.95 7.3511 15.78 13.2239 17.2709L13.2275 17.2718L13.2275 17.2718C16.6918 18.1724 18.7563 18.9176 19.9803 19.5941C20.5964 19.9345 21.037 20.2775 21.3355 20.6469C21.5394 20.8993 21.6673 21.1522 21.7434 21.4024C21.7988 21.5661 21.8281 21.7252 21.8281 21.8694L20.5083 21.9457C20.5032 21.9019 20.4956 21.8582 20.4835 21.8136C20.4609 21.7525 20.4139 21.6499 20.3166 21.5283C20.1625 21.3356 19.8975 21.1187 19.4588 20.9995C18.5665 20.757 16.8302 20.8929 13.7673 22.795L13.7663 22.7956C12.2674 23.7228 10.803 24.9233 9.57121 26.2389L9.34176 26.484L9.00939 26.4435C7.62984 26.2754 6.33107 25.8969 5.15538 25.3482L5.15066 25.346L5.14598 25.3437C4.0723 24.8219 3.26219 23.8505 2.84579 22.7591C2.4287 21.6659 2.38575 20.3943 2.93257 19.2709ZM17.0954 19.8044C16.037 19.4327 14.6677 19.0211 12.8978 18.561C7.13195 17.0976 4.79994 18.4631 4.12206 19.8558C3.76509 20.5892 3.7718 21.469 4.0822 22.2825C4.39266 23.0962 4.9861 23.7859 5.71792 24.1432C6.67361 24.5886 7.72488 24.9102 8.84364 25.0779C10.1028 23.7761 11.5675 22.5929 13.0718 21.6623C14.6589 20.6768 15.9866 20.0932 17.0954 19.8044Z" fill="#3C00A6"/>
<path fill-rule="evenodd" clip-rule="evenodd" d="M12.2725 11.6939C10.2366 10.9053 8.25893 10.5976 6.64361 10.9403L6.64324 10.9404C4.5885 11.3752 2.6078 12.7387 1.6945 15.5646C0.890646 18.0956 1.49146 20.1922 2.58991 21.7026C2.47656 20.8948 2.57162 20.0503 2.94716 19.2766C3.49969 18.1382 4.61025 17.2532 6.30707 16.8579C7.9876 16.4664 10.2579 16.5477 13.2259 17.3114L13.2275 17.3118C16.6918 18.2124 18.7563 18.9576 19.9804 19.6341C20.5964 19.9745 21.0371 20.3174 21.3355 20.6869C21.344 20.6973 21.3523 20.7078 21.3605 20.7183C21.4286 20.5341 21.4724 20.3019 21.4582 20.0159C21.4124 19.0947 20.7491 17.4844 17.9978 15.1504L17.9959 15.1487C16.3203 13.7162 14.2984 12.4786 12.2725 11.6939ZM18.8529 14.134C17.0724 12.6119 14.9234 11.2942 12.7486 10.4518C10.5835 9.61321 8.33045 9.2221 6.37044 9.63791M18.8529 14.134C21.7024 16.5515 22.7074 18.475 22.7808 19.9495C22.8178 20.6946 22.613 21.2901 22.3304 21.723C22.065 22.1294 21.7034 22.4309 21.3754 22.5408L20.6018 22.8L20.5083 21.9857C20.4918 21.842 20.4474 21.699 20.3076 21.526C20.1554 21.3376 19.8735 21.094 19.3424 20.8005C18.2724 20.2092 16.3445 19.497 12.8968 18.6007C10.0453 17.8671 8.00548 17.8286 6.60605 18.1546C5.22281 18.4769 4.48359 19.1467 4.13729 19.8602C3.78269 20.5908 3.79002 21.4698 4.09933 22.2841C4.40936 23.1004 5.00093 23.7909 5.72502 24.1467L5.16023 25.3505C3.7797 24.7197 2.57053 23.862 1.6936 22.7172C0.263361 20.886 -0.553606 18.2643 0.43356 15.158L0.434515 15.155L0.434522 15.155C1.50772 11.8325 3.89646 10.1616 6.37008 9.63799" fill="#3C00A6"/>
<path fill-rule="evenodd" clip-rule="evenodd" d="M19.7434 29.2581C20.1687 30.9671 20.8242 32.7458 21.7039 34.3221L21.8784 34.6349L21.7145 34.9535C21.0971 36.1533 20.3505 37.282 19.4702 38.2511L19.4647 38.2571L19.4591 38.263C18.6339 39.128 17.4658 39.6043 16.3063 39.6686C15.1452 39.733 13.9302 39.3862 13.0388 38.5206C12.134 37.6418 11.6434 36.3072 11.7965 34.5654C11.9482 32.8403 12.729 30.6982 14.3697 28.1021C16.2817 25.0591 17.6294 23.3117 18.6524 22.3473C19.1671 21.8622 19.6289 21.5467 20.0688 21.3746C20.329 21.2728 20.5721 21.2249 20.8006 21.2161C21.0089 21.2035 21.2022 21.2234 21.3637 21.2741L21.0363 22.562C20.9831 22.5513 20.9274 22.5445 20.8659 22.5457C20.7962 22.551 20.6944 22.5678 20.5697 22.6153C20.3408 22.7025 20.0563 22.8878 19.8098 23.2698C19.3078 24.0479 18.9052 25.7486 19.7434 29.2581ZM17.9509 25.1813C17.8847 26.3251 18.0248 27.7654 18.4566 29.5721L18.4573 29.5751L18.458 29.578C18.8787 31.2694 19.5158 33.0396 20.3743 34.6528C19.8366 35.6464 19.2101 36.5622 18.4979 37.3474C17.9328 37.9365 17.0973 38.2917 16.2334 38.3396C15.3685 38.3875 14.5375 38.1252 13.959 37.5633C13.3939 37.0145 12.9907 36.1029 13.1156 34.6826C13.242 33.2458 13.9111 31.31 15.4879 28.8151L15.4889 28.8136C16.4632 27.263 17.2728 26.0798 17.9509 25.1813Z" fill="#3C00A6"/>
<path fill-rule="evenodd" clip-rule="evenodd" d="M19.4632 21.0392C18.5771 20.7973 16.8516 20.9321 13.8088 22.8339L13.8075 22.8347C11.938 23.9971 10.1384 25.5464 8.76883 27.2407C7.39247 28.9434 6.49297 30.7391 6.33168 32.3964L6.33132 32.4001H6.33131C6.11403 34.5114 6.75376 36.8217 9.1598 38.5811C11.2798 40.1177 13.4074 40.1851 15.2082 39.6163C14.4136 39.4729 13.6495 39.1207 13.038 38.5247C12.1341 37.6438 11.6433 36.3086 11.7965 34.566C11.9482 32.8403 12.729 30.6982 14.3697 28.1021C16.2817 25.0591 17.6294 23.3117 18.6524 22.3473C19.1671 21.8621 19.6289 21.5467 20.0688 21.3746C20.0824 21.3693 20.0959 21.3641 20.1093 21.3591C19.9546 21.2335 19.7448 21.116 19.4632 21.0392ZM21.3501 20.7349C21.6528 21.1145 21.8283 21.5564 21.8283 21.9093V22.7211L21.0363 22.5619C20.905 22.5355 20.7583 22.5332 20.5491 22.615C20.3223 22.7037 20.002 22.8999 19.5583 23.3182C18.6645 24.1607 17.3904 25.7873 15.4889 28.8136L15.4879 28.8151C13.9111 31.3099 13.242 33.2457 13.1156 34.6832C12.9907 36.104 13.3938 37.0175 13.9598 37.5691C14.5393 38.1339 15.3714 38.3993 16.237 38.3562C17.1046 38.3129 17.9424 37.9615 18.5065 37.3783L19.4761 38.2844C18.4565 39.4373 17.215 40.3028 15.9118 40.7832L15.908 40.7846L15.9042 40.7859C13.7056 41.5659 11.0093 41.5632 8.38406 39.6599L8.38197 39.6583C5.54561 37.5849 4.7551 34.7851 5.01394 32.265C5.21066 30.2491 6.27743 28.212 7.74109 26.4013C9.21186 24.5818 11.1264 22.9366 13.1102 21.7031C16.2644 19.7318 18.3922 19.3676 19.8102 19.7546C20.5264 19.9501 21.0272 20.3301 21.3501 20.7349Z" fill="#3C00A6"/>
<path fill-rule="evenodd" clip-rule="evenodd" d="M27.6485 25.5583C29.4285 25.6748 31.3155 25.5959 33.0762 25.2496L33.4133 25.1833L33.6614 25.4222C34.6548 26.3792 35.493 27.4292 36.126 28.5745L36.1294 28.5806L36.1327 28.5869C36.687 29.6421 36.7705 30.9056 36.4698 32.0342C36.1686 33.1646 35.4643 34.2211 34.3701 34.8103C33.2591 35.4085 31.8441 35.4728 30.2404 34.7954C28.6523 34.1246 26.863 32.724 24.9078 30.3615L24.9049 30.358L24.9049 30.358C22.6351 27.5761 21.4084 25.756 20.8153 24.489C20.654 24.1444 20.5343 23.8301 20.4538 23.5397C20.3655 23.2761 20.323 23.02 20.3145 22.7814C20.297 22.2939 20.4222 21.83 20.6413 21.5437L21.7531 22.2573C21.6846 22.3893 21.639 22.5363 21.6531 22.7626C21.6596 22.867 21.6792 22.9931 21.7195 23.146C21.7763 23.3039 21.8679 23.4759 22.0103 23.6545C22.5823 24.3712 24.0595 25.2833 27.6485 25.5583ZM23.2774 26.0358C23.9128 26.9593 24.7737 28.0981 25.9273 29.5121C27.8052 31.7806 29.4319 33.0101 30.7534 33.5683C32.0597 34.12 33.0482 34.0121 33.7448 33.637C34.4581 33.2528 34.9655 32.5348 35.1907 31.6898C35.4157 30.8453 35.3413 29.9353 34.9648 29.2145C34.4563 28.2959 33.7892 27.4307 32.9857 26.6203C31.1953 26.9372 29.3192 27.0017 27.5587 26.8863L27.5552 26.8861L27.5516 26.8858C25.729 26.7464 24.3341 26.4437 23.2774 26.0358Z" fill="#3C00A6"/>
<path fill-rule="evenodd" clip-rule="evenodd" d="M19.7438 29.2602C20.2639 31.3889 21.1792 33.5846 22.3623 35.419C23.551 37.262 24.9713 38.6813 26.4746 39.3482C28.4409 40.1889 30.8078 40.2982 33.2094 38.5435C35.348 36.9568 36.0892 34.926 36.0822 33.0351C35.7027 33.7636 35.1301 34.3981 34.3689 34.806C33.2569 35.4017 31.8416 35.4611 30.2384 34.7777C28.6507 34.1009 26.8619 32.6928 24.907 30.3205L24.9049 30.318L24.9049 30.318C22.6351 27.5362 21.4085 25.7161 20.8153 24.4491C20.5167 23.8113 20.3609 23.2773 20.3315 22.806C20.3299 22.78 20.3287 22.7543 20.3278 22.7289C20.1567 22.8357 19.9743 23.0013 19.809 23.2563C19.3083 24.0285 18.9047 25.7281 19.7438 29.2602ZM18.6996 22.5295C19.5061 21.2856 20.7527 21.0824 21.3636 21.2743L22.1194 21.5117L21.7531 22.2174C21.6846 22.3494 21.639 22.4964 21.6531 22.7227C21.6684 22.9677 21.7559 23.3322 22.0135 23.8824C22.5326 24.9912 23.6694 26.7048 25.9278 29.4727C27.8061 31.7517 29.4334 32.9888 30.7554 33.5523C32.0622 34.1093 33.0504 34.004 33.746 33.6313C34.4585 33.2496 34.9656 32.5334 35.1907 31.6891C35.4163 30.843 35.3409 29.9303 34.9617 29.2085L36.1198 28.5635C36.8843 29.887 37.3139 31.3049 37.3999 32.7309L37.4004 32.7387L37.4007 32.7465C37.4874 35.1011 36.6097 37.6761 33.9936 39.616L33.99 39.6186L33.99 39.6186C31.1498 41.6949 28.2749 41.5657 25.952 40.5712L25.9482 40.5696L25.9445 40.568C24.1121 39.7567 22.5146 38.102 21.2511 36.143C19.9814 34.1744 19.0099 31.8387 18.4573 29.5755L18.4563 29.5715L18.4563 29.5715C17.5878 25.9172 17.8993 23.7638 18.6996 22.5295Z" fill="#3C00A6"/>
<path fill-rule="evenodd" clip-rule="evenodd" d="M36.1346 17.2008C35.002 18.5114 33.1167 19.79 30.2703 20.9304L30.2685 20.9311C26.9434 22.252 24.8425 22.8681 23.459 23.0439C22.7625 23.1324 22.2069 23.1152 21.7501 22.994C21.5439 22.9393 21.3643 22.8651 21.2061 22.7765C20.9558 22.6437 20.7495 22.4738 20.6218 22.2882L21.6468 21.4517C21.7021 21.5103 21.7637 21.5637 21.8431 21.6094C21.8945 21.6353 21.9616 21.6632 22.046 21.6867C22.2804 21.7518 22.6193 21.772 23.0426 21.6113C23.9031 21.2845 25.227 20.1572 26.5924 16.8242L26.5942 16.8198L26.596 16.8155C27.2831 15.2041 27.7463 13.3483 27.9782 11.5608L28.0215 11.2268L28.3149 11.0641C29.5279 10.3914 30.8238 9.92909 32.0803 9.67648L32.0866 9.67522L32.0929 9.67408C33.2699 9.46111 34.4959 9.76431 35.4732 10.3973C36.4519 11.0312 37.232 12.0304 37.4458 13.2593C37.6628 14.5062 37.2777 15.878 36.1346 17.2008ZM25.6693 21.1681C26.7399 20.8435 28.0846 20.3674 29.781 19.6935C32.5156 18.5978 34.1906 17.4207 35.1349 16.328C36.0687 15.2474 36.2771 14.2682 36.1414 13.4886C36.0027 12.6909 35.4842 11.9879 34.7559 11.5162C34.0281 11.0448 33.1411 10.8387 32.3335 10.983C31.3077 11.1899 30.2488 11.5538 29.2445 12.0742C28.9869 13.8546 28.5124 15.6984 27.815 17.3354C27.1147 19.0442 26.3896 20.2862 25.6693 21.1681Z" fill="#3C00A6"/>
<path fill-rule="evenodd" clip-rule="evenodd" d="M36.3247 11.1246C36.8857 11.7099 37.2991 12.446 37.4458 13.2894C37.6628 14.5364 37.2777 15.9062 36.1337 17.2245C35.0006 18.5302 33.1149 19.8011 30.2685 20.9312C26.9434 22.2522 24.8425 22.8682 23.459 23.0441C22.7625 23.1326 22.2069 23.1154 21.7501 22.9942C21.7266 22.988 21.7035 22.9815 21.6807 22.9748C21.7304 23.1658 21.8301 23.384 22.014 23.6129C22.5908 24.331 24.0793 25.2439 27.6915 25.5187L27.6937 25.5189C29.89 25.6932 32.2479 25.5082 34.3448 24.95C36.4503 24.3895 38.2299 23.47 39.3434 22.2255C40.7175 20.6615 41.5488 18.3882 40.6389 15.5687C39.7998 13.0409 38.114 11.7124 36.3247 11.1246ZM32.0803 9.67665C33.5511 9.38098 35.0499 9.37502 36.4416 9.76845L36.4458 9.76966L36.4458 9.76967C38.6975 10.4225 40.8662 12.045 41.896 15.1503L41.8976 15.1552L41.8976 15.1552C42.9725 18.4828 41.9776 21.2394 40.3339 23.109L40.3302 23.1131L40.3302 23.1131C38.9805 24.623 36.9273 25.6395 34.6838 26.2367C32.431 26.8364 29.9228 27.0308 27.5905 26.8459C23.854 26.5615 21.9064 25.5977 20.9837 24.4491C20.5167 23.8678 20.3347 23.2635 20.3152 22.7426C20.2969 22.2544 20.4221 21.7903 20.6413 21.5038L21.1138 20.8864L21.6468 21.4519C21.7485 21.5598 21.8717 21.6498 22.088 21.7072C22.3227 21.7695 22.6933 21.7997 23.2929 21.7235C24.5015 21.5699 26.4726 21.008 29.7818 19.6934L29.7819 19.6933C32.5172 18.6073 34.1919 17.4373 35.1358 16.3496C36.0688 15.2744 36.277 14.2982 36.1414 13.5187C36.0026 12.7206 35.4836 12.0144 34.7536 11.5374C34.0224 11.0594 33.1311 10.847 32.3211 10.9854L32.0803 9.67665Z" fill="#3C00A6"/>
</svg>
