<svg width="247" height="63" viewBox="0 0 247 63" fill="none" xmlns="http://www.w3.org/2000/svg">
  <path d="M0.979004 4.66675H23.379C34.679 4.66675 41.179 11.1667 41.179 19.8667C41.179 25.0667 38.679 29.0667 34.679 31.4667V31.9667C38.479 33.6667 42.979 37.7667 42.979 45.1667C42.979 55.7667 34.479 61.9667 25.079 61.9667H0.979004V4.66675ZM21.679 27.6667C25.979 27.6667 28.479 24.9667 28.479 21.1667C28.479 17.6667 25.7791 15.1667 21.7791 15.1667H13.379V27.5667H21.679V27.6667ZM21.679 51.0667C26.179 51.0667 29.2791 48.7667 29.2791 43.8667C29.2791 39.1667 25.679 36.9667 21.479 36.9667H13.2791V51.0667H21.679Z" fill="#3C00A6"/>
  <path d="M51.0791 48.3666V0.56665H63.7792V46.8666C63.7792 49.4666 65.0792 50.7667 67.3792 50.7667H68.9791V61.8666H64.6791C55.8791 61.8666 51.0791 56.7666 51.0791 48.3666Z" fill="#3C00A6"/>
  <path d="M73.979 40.2667C73.979 27.4667 83.2791 17.5667 97.2791 17.5667C111.079 17.5667 120.479 27.4667 120.479 40.2667C120.479 53.0667 111.079 62.9667 97.179 62.9667C83.379 62.9667 73.979 53.0667 73.979 40.2667ZM107.679 40.2667C107.679 33.7667 103.279 29.0667 97.179 29.0667C91.179 29.0667 86.7791 33.7667 86.7791 40.2667C86.7791 46.8667 91.179 51.4667 97.179 51.4667C103.279 51.5667 107.679 46.8667 107.679 40.2667Z" fill="#3C00A6"/>
  <path d="M126.379 40.2667C126.379 27.4667 135.679 17.5667 149.679 17.5667C163.479 17.5667 172.879 27.4667 172.879 40.2667C172.879 53.0667 163.479 62.9667 149.579 62.9667C135.879 62.9667 126.379 53.0667 126.379 40.2667ZM160.179 40.2667C160.179 33.7667 155.779 29.0667 149.679 29.0667C143.679 29.0667 139.279 33.7667 139.279 40.2667C139.279 46.8667 143.679 51.4667 149.679 51.4667C155.679 51.5667 160.179 46.8667 160.179 40.2667Z" fill="#3C00A6"/>
  <path d="M181.379 18.6667H193.279V23.3667H193.979C195.779 20.4667 199.579 17.6667 205.279 17.6667C210.879 17.6667 215.179 19.8667 217.779 23.5667H218.379C221.379 19.5667 225.479 17.6667 230.879 17.6667C240.279 17.6667 246.579 23.8667 246.579 32.8667V61.9667H233.879V37.2667C233.879 32.5667 231.779 29.3667 227.379 29.3667C223.179 29.3667 220.379 32.7667 220.379 37.6667V61.8667H207.679V36.8667C207.679 32.4667 205.279 29.3667 200.979 29.3667C196.779 29.3667 193.979 32.8667 193.979 37.5667V61.8667H181.279V18.6667H181.379Z" fill="#3C00A6"/>
</svg>