<svg xmlns="http://www.w3.org/2000/svg" width="32" height="32" viewBox="0 0 32 32" fill="none">
  <path d="M16 28C22.6274 28 28 22.6274 28 16C28 9.37258 22.6274 4 16 4C9.37258 4 4 9.37258 4 16C4 22.6274 9.37258 28 16 28Z" fill="#627EEA"/>
  <path d="M16.3739 6.99829V13.6511L21.9966 16.164L16.3739 6.99829Z" fill="white" fill-opacity="0.602"/>
  <path d="M16.3741 6.99829L10.7514 16.164L16.3741 13.6511V6.99829Z" fill="white"/>
  <path d="M16.3739 20.4738V24.9943L21.9999 17.2097L16.3739 20.4738Z" fill="white" fill-opacity="0.602"/>
  <path d="M16.3741 24.9943V20.4738L10.7514 17.2097L16.3741 24.9943Z" fill="white"/>
  <path d="M16.3739 19.4278L21.9966 16.1637L16.3739 13.6509V19.4278Z" fill="white" fill-opacity="0.2"/>
  <path d="M10.7514 16.1637L16.3741 19.4278V13.6509L10.7514 16.1637Z" fill="white" fill-opacity="0.602"/>
</svg>